<?xml version="1.0" encoding="utf-8"?>
<!-- Generator: Adobe Illustrator 16.2.0, SVG Export Plug-In . SVG Version: 6.00 Build 0)  -->
<!DOCTYPE svg PUBLIC "-//W3C//DTD SVG 1.1//EN" "http://www.w3.org/Graphics/SVG/1.1/DTD/svg11.dtd">
<svg version="1.1" id="Layer_1" xmlns="http://www.w3.org/2000/svg" xmlns:xlink="http://www.w3.org/1999/xlink" x="0px" y="0px"
	 width="160px" height="160px" viewBox="0 0 160 160" enable-background="new 0 0 160 160" xml:space="preserve">
<g>
	<circle fill="#73BF44" cx="80" cy="80.104" r="80"/>
	<g>
		<path fill="#FFFFFF" d="M47.746,81.72c-12.434,0-22.515,10.081-22.515,22.515c0,12.437,10.082,22.516,22.515,22.516
			c12.434,0,22.516-10.079,22.516-22.516C70.262,91.801,60.18,81.72,47.746,81.72z M47.746,122.527
			c-10.087,0-18.293-8.204-18.293-18.293c0-10.087,8.206-18.293,18.293-18.293s18.294,8.206,18.294,18.293
			C66.04,114.323,57.833,122.527,47.746,122.527z M48.872,101.063V89.6c0-0.621-0.503-1.125-1.126-1.125
			c-0.622,0-1.125,0.504-1.125,1.125v11.464c-1.308,0.468-2.251,1.703-2.251,3.171c0,1.863,1.512,3.379,3.377,3.379
			c1.865,0,3.378-1.516,3.378-3.379C51.124,102.767,50.181,101.531,48.872,101.063z M45.495,79.468h4.503v-2.252h2.251v-4.503
			h-9.006v4.503h2.251V79.468z M71.108,84.813l-5.066-5.065l-3.382,3.382l5.066,5.066L71.108,84.813z"/>
		<path fill="#FFFFFF" d="M28.154,32.922v50.657c2.18-2.056,4.685-3.769,7.432-5.051V40.586h91.465v68.281H75.316
			c-0.505,2.971-1.473,5.783-2.83,8.36h61.764V32.922H28.154z"/>
		<rect x="110.328" y="45.231" fill="#FFFFFF" width="10.22" height="58.991"/>
		<rect x="93.606" y="74.262" fill="#FFFFFF" width="10.219" height="29.96"/>
		<rect x="76.885" y="63.811" fill="#FFFFFF" width="10.219" height="40.411"/>
	</g>
</g>
</svg>
