<?xml version="1.0" encoding="UTF-8"?><svg xmlns="http://www.w3.org/2000/svg" xmlns:xlink="http://www.w3.org/1999/xlink" fill-opacity="1" color-rendering="auto" color-interpolation="auto" text-rendering="auto" stroke="black" stroke-linecap="square" width="584" stroke-miterlimit="10" shape-rendering="auto" stroke-opacity="1" fill="black" stroke-dasharray="none" font-weight="normal" stroke-width="1" height="444" font-family="'Dialog'" font-style="normal" stroke-linejoin="miter" font-size="12px" stroke-dashoffset="0" image-rendering="auto">
  <!--Generated by ySVG 2.5-->
  <defs id="genericDefs"/>
  <g>
    <defs id="defs1">
      <clipPath clipPathUnits="userSpaceOnUse" id="clipPath1">
        <path d="M0 0 L584 0 L584 444 L0 444 L0 0 Z"/>
      </clipPath>
      <clipPath clipPathUnits="userSpaceOnUse" id="clipPath2">
        <path d="M296 267 L880 267 L880 711 L296 711 L296 267 Z"/>
      </clipPath>
    </defs>
    <g fill="rgb(153,204,255)" text-rendering="geometricPrecision" shape-rendering="geometricPrecision" transform="matrix(1,0,0,1,-296,-267)" stroke="rgb(153,204,255)">
      <path d="M311 282 L444 282 L444 297 L459 297 L459 388.5208 L311 388.5208 Z" stroke="none" clip-path="url(#clipPath2)"/>
    </g>
    <g fill="white" text-rendering="geometricPrecision" shape-rendering="geometricPrecision" transform="matrix(1,0,0,1,-296,-267)" stroke="white">
      <path d="M444 282 L444 297 L459 297 Z" fill-rule="evenodd" clip-path="url(#clipPath2)" stroke="none"/>
    </g>
    <g text-rendering="geometricPrecision" stroke-miterlimit="1.45" shape-rendering="geometricPrecision" transform="matrix(1,0,0,1,-296,-267)" stroke-linecap="butt">
      <path fill="none" d="M311 282 L444 282 L444 297 L459 297 L459 388.5208 L311 388.5208 Z" clip-path="url(#clipPath2)"/>
      <path fill="none" d="M444 282 L444 297 L459 297 Z" clip-path="url(#clipPath2)" fill-rule="evenodd"/>
      <text x="327.0098" font-size="18px" y="331.0153" clip-path="url(#clipPath2)" font-family="sans-serif" stroke="none" xml:space="preserve">XML Schema</text>
      <text x="339.9253" font-size="18px" y="351.9684" clip-path="url(#clipPath2)" font-family="sans-serif" stroke="none" xml:space="preserve">(Optional)</text>
    </g>
    <g fill="rgb(153,204,255)" text-rendering="geometricPrecision" shape-rendering="geometricPrecision" transform="matrix(1,0,0,1,-296,-267)" stroke="rgb(153,204,255)">
      <path d="M311 529 L444 529 L444 544 L459 544 L459 696 L311 696 Z" stroke="none" clip-path="url(#clipPath2)"/>
      <path fill="white" d="M444 529 L444 544 L459 544 Z" clip-path="url(#clipPath2)" fill-rule="evenodd" stroke="none"/>
    </g>
    <g text-rendering="geometricPrecision" stroke-miterlimit="1.45" shape-rendering="geometricPrecision" transform="matrix(1,0,0,1,-296,-267)" stroke-linecap="butt">
      <path fill="none" d="M311 529 L444 529 L444 544 L459 544 L459 696 L311 696 Z" clip-path="url(#clipPath2)"/>
      <path fill="none" d="M444 529 L444 544 L459 544 Z" clip-path="url(#clipPath2)" fill-rule="evenodd"/>
      <text x="363.1943" font-size="18px" y="608.2549" clip-path="url(#clipPath2)" font-family="sans-serif" stroke="none" xml:space="preserve">XML </text>
      <text x="338.374" font-size="18px" y="629.208" clip-path="url(#clipPath2)" font-family="sans-serif" stroke="none" xml:space="preserve">Document</text>
    </g>
    <g fill="silver" text-rendering="geometricPrecision" shape-rendering="geometricPrecision" transform="matrix(1,0,0,1,-296,-267)" stroke="silver">
      <rect x="642.2901" width="166" height="62" y="282" clip-path="url(#clipPath2)" stroke="none"/>
    </g>
    <g text-rendering="geometricPrecision" stroke-miterlimit="1.45" shape-rendering="geometricPrecision" transform="matrix(1,0,0,1,-296,-267)" stroke-linecap="butt">
      <rect fill="none" x="642.2901" width="166" height="62" y="282" clip-path="url(#clipPath2)"/>
      <text x="661.0728" font-size="18px" y="308.7549" clip-path="url(#clipPath2)" font-family="sans-serif" stroke="none" xml:space="preserve">JAX-B mapped</text>
      <text x="692.7222" font-size="18px" y="329.708" clip-path="url(#clipPath2)" font-family="sans-serif" stroke="none" xml:space="preserve">classes</text>
    </g>
    <g fill="silver" text-rendering="geometricPrecision" shape-rendering="geometricPrecision" transform="matrix(1,0,0,1,-296,-267)" stroke="silver">
      <rect x="653.6847" width="166" height="62" y="291.344" clip-path="url(#clipPath2)" stroke="none"/>
    </g>
    <g text-rendering="geometricPrecision" stroke-miterlimit="1.45" shape-rendering="geometricPrecision" transform="matrix(1,0,0,1,-296,-267)" stroke-linecap="butt">
      <rect fill="none" x="653.6847" width="166" height="62" y="291.344" clip-path="url(#clipPath2)"/>
      <text x="672.4673" font-size="18px" y="318.0989" clip-path="url(#clipPath2)" font-family="sans-serif" stroke="none" xml:space="preserve">JAX-B mapped</text>
      <text x="704.1168" font-size="18px" y="339.052" clip-path="url(#clipPath2)" font-family="sans-serif" stroke="none" xml:space="preserve">classes</text>
    </g>
    <g fill="silver" text-rendering="geometricPrecision" shape-rendering="geometricPrecision" transform="matrix(1,0,0,1,-296,-267)" stroke="silver">
      <rect x="665.9477" width="166" height="62" y="305.4872" clip-path="url(#clipPath2)" stroke="none"/>
    </g>
    <g text-rendering="geometricPrecision" stroke-miterlimit="1.45" shape-rendering="geometricPrecision" transform="matrix(1,0,0,1,-296,-267)" stroke-linecap="butt">
      <rect fill="none" x="665.9477" width="166" height="62" y="305.4872" clip-path="url(#clipPath2)"/>
      <text x="684.7305" font-size="18px" y="332.2421" clip-path="url(#clipPath2)" font-family="sans-serif" stroke="none" xml:space="preserve">JAX-B mapped</text>
      <text x="716.3799" font-size="18px" y="353.1952" clip-path="url(#clipPath2)" font-family="sans-serif" stroke="none" xml:space="preserve">classes</text>
    </g>
    <g fill="silver" text-rendering="geometricPrecision" shape-rendering="geometricPrecision" transform="matrix(1,0,0,1,-296,-267)" stroke="silver">
      <rect x="680.8162" width="166" height="62" y="316.2966" clip-path="url(#clipPath2)" stroke="none"/>
    </g>
    <g text-rendering="geometricPrecision" stroke-miterlimit="1.45" shape-rendering="geometricPrecision" transform="matrix(1,0,0,1,-296,-267)" stroke-linecap="butt">
      <rect fill="none" x="680.8162" width="166" height="62" y="316.2966" clip-path="url(#clipPath2)"/>
      <text x="699.5989" font-size="18px" y="343.0515" clip-path="url(#clipPath2)" font-family="sans-serif" stroke="none" xml:space="preserve">JAX-B mapped</text>
      <text x="731.2484" font-size="18px" y="364.0046" clip-path="url(#clipPath2)" font-family="sans-serif" stroke="none" xml:space="preserve">classes</text>
    </g>
    <g fill="silver" text-rendering="geometricPrecision" shape-rendering="geometricPrecision" transform="matrix(1,0,0,1,-296,-267)" stroke="silver">
      <rect x="693.8162" width="166" height="62" y="326.5208" clip-path="url(#clipPath2)" stroke="none"/>
    </g>
    <g text-rendering="geometricPrecision" stroke-miterlimit="1.45" shape-rendering="geometricPrecision" transform="matrix(1,0,0,1,-296,-267)" stroke-linecap="butt">
      <rect fill="none" x="693.8162" width="166" height="62" y="326.5208" clip-path="url(#clipPath2)"/>
      <text x="712.5989" font-size="18px" y="353.2756" clip-path="url(#clipPath2)" font-family="sans-serif" stroke="none" xml:space="preserve">JAX-B mapped</text>
      <text x="744.2484" font-size="18px" y="374.2288" clip-path="url(#clipPath2)" font-family="sans-serif" stroke="none" xml:space="preserve">classes</text>
      <rect fill="none" x="653.6847" width="206.1315" height="167" y="529" clip-path="url(#clipPath2)"/>
      <text x="785.8152" font-size="18px" y="551.708" clip-path="url(#clipPath2)" font-family="sans-serif" stroke="none" xml:space="preserve">Objects</text>
    </g>
    <g fill="rgb(255,204,0)" text-rendering="geometricPrecision" shape-rendering="geometricPrecision" transform="matrix(1,0,0,1,-296,-267)" stroke="rgb(255,204,0)">
      <rect x="677.5936" y="597.5" clip-path="url(#clipPath2)" width="30" rx="4" ry="4" height="30" stroke="none"/>
    </g>
    <g text-rendering="geometricPrecision" stroke-miterlimit="1.45" shape-rendering="geometricPrecision" transform="matrix(1,0,0,1,-296,-267)" stroke-linecap="butt">
      <rect x="677.5936" y="597.5" clip-path="url(#clipPath2)" fill="none" width="30" rx="4" ry="4" height="30"/>
    </g>
    <g fill="rgb(255,204,0)" text-rendering="geometricPrecision" shape-rendering="geometricPrecision" transform="matrix(1,0,0,1,-296,-267)" stroke="rgb(255,204,0)">
      <rect x="723.6881" y="597.5" clip-path="url(#clipPath2)" width="30" rx="4" ry="4" height="30" stroke="none"/>
    </g>
    <g text-rendering="geometricPrecision" stroke-miterlimit="1.45" shape-rendering="geometricPrecision" transform="matrix(1,0,0,1,-296,-267)" stroke-linecap="butt">
      <rect x="723.6881" y="597.5" clip-path="url(#clipPath2)" fill="none" width="30" rx="4" ry="4" height="30"/>
    </g>
    <g fill="rgb(255,204,0)" text-rendering="geometricPrecision" shape-rendering="geometricPrecision" transform="matrix(1,0,0,1,-296,-267)" stroke="rgb(255,204,0)">
      <rect x="677.5936" y="639.2943" clip-path="url(#clipPath2)" width="30" rx="4" ry="4" height="30" stroke="none"/>
    </g>
    <g text-rendering="geometricPrecision" stroke-miterlimit="1.45" shape-rendering="geometricPrecision" transform="matrix(1,0,0,1,-296,-267)" stroke-linecap="butt">
      <rect x="677.5936" y="639.2943" clip-path="url(#clipPath2)" fill="none" width="30" rx="4" ry="4" height="30"/>
    </g>
    <g fill="rgb(255,204,0)" text-rendering="geometricPrecision" shape-rendering="geometricPrecision" transform="matrix(1,0,0,1,-296,-267)" stroke="rgb(255,204,0)">
      <rect x="677.5936" y="555.7057" clip-path="url(#clipPath2)" width="30" rx="4" ry="4" height="30" stroke="none"/>
    </g>
    <g text-rendering="geometricPrecision" stroke-miterlimit="1.45" shape-rendering="geometricPrecision" transform="matrix(1,0,0,1,-296,-267)" stroke-linecap="butt">
      <rect x="677.5936" y="555.7057" clip-path="url(#clipPath2)" fill="none" width="30" rx="4" ry="4" height="30"/>
    </g>
    <g fill="rgb(255,204,0)" text-rendering="geometricPrecision" shape-rendering="geometricPrecision" transform="matrix(1,0,0,1,-296,-267)" stroke="rgb(255,204,0)">
      <rect x="723.6881" y="639.2943" clip-path="url(#clipPath2)" width="30" rx="4" ry="4" height="30" stroke="none"/>
    </g>
    <g text-rendering="geometricPrecision" stroke-miterlimit="1.45" shape-rendering="geometricPrecision" transform="matrix(1,0,0,1,-296,-267)" stroke-linecap="butt">
      <rect x="723.6881" y="639.2943" clip-path="url(#clipPath2)" fill="none" width="30" rx="4" ry="4" height="30"/>
    </g>
    <g fill="rgb(255,204,0)" text-rendering="geometricPrecision" shape-rendering="geometricPrecision" transform="matrix(1,0,0,1,-296,-267)" stroke="rgb(255,204,0)">
      <rect x="769.7825" y="639.2943" clip-path="url(#clipPath2)" width="30" rx="4" ry="4" height="30" stroke="none"/>
    </g>
    <g text-rendering="geometricPrecision" stroke-miterlimit="1.45" shape-rendering="geometricPrecision" transform="matrix(1,0,0,1,-296,-267)" stroke-linecap="butt">
      <rect x="769.7825" y="639.2943" clip-path="url(#clipPath2)" fill="none" width="30" rx="4" ry="4" height="30"/>
      <path fill="none" d="M385 529.01 L385 396.4753" clip-path="url(#clipPath2)"/>
      <path d="M385 388.4753 L380 400.4753 L385 397.4753 L390 400.4753 Z" clip-path="url(#clipPath2)" stroke="none"/>
      <text x="387.2383" font-size="16px" y="464.2994" clip-path="url(#clipPath2)" font-family="sans-serif" stroke="none" xml:space="preserve">follows</text>
      <path fill="none" d="M614.2479 335.2604 L482.4249 335.2604" clip-path="url(#clipPath2)"/>
      <path d="M622.2479 335.2604 L610.2479 330.2604 L613.2479 335.2604 L610.2479 340.2604 Z" clip-path="url(#clipPath2)" stroke="none"/>
      <text x="532.7856" font-size="16px" y="310.7994" clip-path="url(#clipPath2)" font-family="sans-serif" stroke="none" xml:space="preserve">Bind</text>
      <path fill="none" d="M620.5109 313 L484.3456 313" clip-path="url(#clipPath2)"/>
      <path d="M476.3456 313 L488.3456 318 L485.3456 313 L488.3456 308 Z" clip-path="url(#clipPath2)" stroke="none"/>
      <path fill="none" d="M489.5564 580.6071 L632.6694 580.6071" clip-path="url(#clipPath2)"/>
      <path d="M481.5564 580.6071 L493.5564 585.6071 L490.5564 580.6071 L493.5564 575.6071 Z" clip-path="url(#clipPath2)" stroke="none"/>
      <text x="521.772" font-size="16px" y="556.1462" clip-path="url(#clipPath2)" font-family="sans-serif" stroke="none" xml:space="preserve">marshall</text>
      <path fill="none" d="M485.0303 612.5 L620.3271 612.5" clip-path="url(#clipPath2)"/>
      <path d="M628.3271 612.5 L616.3271 607.5 L619.3271 612.5 L616.3271 617.5 Z" clip-path="url(#clipPath2)" stroke="none"/>
      <text x="511.6314" font-size="16px" y="648.0391" clip-path="url(#clipPath2)" font-family="sans-serif" stroke="none" xml:space="preserve">unmarshall</text>
      <path fill="none" d="M756.7504 512.8668 L756.7504 409.7031" clip-path="url(#clipPath2)"/>
      <path d="M756.7504 401.7031 L751.7504 413.7031 L756.7504 410.7031 L761.7504 413.7031 Z" clip-path="url(#clipPath2)" stroke="none"/>
      <text x="766.0921" font-size="16px" y="462.5625" clip-path="url(#clipPath2)" font-family="sans-serif" stroke="none" xml:space="preserve">Instances of</text>
      <path fill="none" d="M707.5833 612.5 L723.7128 612.5" clip-path="url(#clipPath2)"/>
      <path fill="none" d="M692.5936 627.479 L692.5936 639.2892" clip-path="url(#clipPath2)"/>
      <path fill="none" d="M692.5936 585.6847 L692.5936 597.4949" clip-path="url(#clipPath2)"/>
      <path fill="none" d="M738.688 627.479 L738.688 639.2892" clip-path="url(#clipPath2)"/>
      <path fill="none" d="M753.6778 654.2943 L769.8073 654.2943" clip-path="url(#clipPath2)"/>
    </g>
  </g>
</svg>
