<?xml version="1.0" encoding="UTF-8"?><svg xmlns="http://www.w3.org/2000/svg" xmlns:xlink="http://www.w3.org/1999/xlink" fill-opacity="1" color-rendering="auto" color-interpolation="auto" text-rendering="auto" stroke="black" stroke-linecap="square" width="592" stroke-miterlimit="10" shape-rendering="auto" stroke-opacity="1" fill="black" stroke-dasharray="none" font-weight="normal" stroke-width="1" height="398" font-family="'Dialog'" font-style="normal" stroke-linejoin="miter" font-size="12px" stroke-dashoffset="0" image-rendering="auto">
  <!--Generated by ySVG 2.5-->
  <defs id="genericDefs"/>
  <g>
    <defs id="defs1">
      <clipPath clipPathUnits="userSpaceOnUse" id="clipPath1">
        <path d="M0 0 L592 0 L592 398 L0 398 L0 0 Z"/>
      </clipPath>
      <clipPath clipPathUnits="userSpaceOnUse" id="clipPath2">
        <path d="M355 283 L947 283 L947 681 L355 681 L355 283 Z"/>
      </clipPath>
    </defs>
    <g fill="rgb(153,204,255)" text-rendering="geometricPrecision" shape-rendering="geometricPrecision" transform="matrix(1,0,0,1,-355,-283)" stroke="rgb(153,204,255)">
      <rect x="550" y="298" clip-path="url(#clipPath2)" width="208" rx="4" ry="4" height="73" stroke="none"/>
    </g>
    <g text-rendering="geometricPrecision" stroke-miterlimit="1.45" shape-rendering="geometricPrecision" transform="matrix(1,0,0,1,-355,-283)" stroke-linecap="butt">
      <rect x="550" y="298" clip-path="url(#clipPath2)" fill="none" width="208" rx="4" ry="4" height="73"/>
      <text x="598.5146" font-size="18px" y="330.2549" clip-path="url(#clipPath2)" font-family="sans-serif" stroke="none" xml:space="preserve">Transformer</text>
      <text x="620.2983" font-size="18px" y="351.208" clip-path="url(#clipPath2)" font-family="sans-serif" stroke="none" xml:space="preserve">Factory</text>
    </g>
    <g fill="rgb(153,204,255)" text-rendering="geometricPrecision" shape-rendering="geometricPrecision" transform="matrix(1,0,0,1,-355,-283)" stroke="rgb(153,204,255)">
      <rect x="550" y="437" clip-path="url(#clipPath2)" width="208" rx="4" ry="4" height="73" stroke="none"/>
    </g>
    <g text-rendering="geometricPrecision" stroke-miterlimit="1.45" shape-rendering="geometricPrecision" transform="matrix(1,0,0,1,-355,-283)" stroke-linecap="butt">
      <rect x="550" y="437" clip-path="url(#clipPath2)" fill="none" width="208" rx="4" ry="4" height="73"/>
      <text x="598.5146" font-size="18px" y="479.7314" clip-path="url(#clipPath2)" font-family="sans-serif" stroke="none" xml:space="preserve">Transformer</text>
    </g>
    <g fill="lime" text-rendering="geometricPrecision" shape-rendering="geometricPrecision" transform="matrix(1,0,0,1,-355,-283)" stroke="lime">
      <rect x="550" y="593" clip-path="url(#clipPath2)" width="208" rx="4" ry="4" height="73" stroke="none"/>
    </g>
    <g text-rendering="geometricPrecision" stroke-miterlimit="1.45" shape-rendering="geometricPrecision" transform="matrix(1,0,0,1,-355,-283)" stroke-linecap="butt">
      <rect x="550" y="593" clip-path="url(#clipPath2)" fill="none" width="208" rx="4" ry="4" height="73"/>
      <text x="598.5146" font-size="18px" y="625.2549" clip-path="url(#clipPath2)" font-family="sans-serif" stroke="none" xml:space="preserve">Transformer</text>
      <text x="601.1426" font-size="18px" y="646.208" clip-path="url(#clipPath2)" font-family="sans-serif" stroke="none" xml:space="preserve">Instructions</text>
    </g>
    <g fill="silver" text-rendering="geometricPrecision" shape-rendering="geometricPrecision" transform="matrix(1,0,0,1,-355,-283)" stroke="silver">
      <path d="M370 433.5 L455 433.5 L455 448.5 L470 448.5 L470 513.5 L370 513.5 Z" stroke="none" clip-path="url(#clipPath2)"/>
      <path fill="white" d="M455 433.5 L455 448.5 L470 448.5 Z" clip-path="url(#clipPath2)" fill-rule="evenodd" stroke="none"/>
    </g>
    <g text-rendering="geometricPrecision" stroke-miterlimit="1.45" shape-rendering="geometricPrecision" transform="matrix(1,0,0,1,-355,-283)" stroke-linecap="butt">
      <path fill="none" d="M370 433.5 L455 433.5 L455 448.5 L470 448.5 L470 513.5 L370 513.5 Z" clip-path="url(#clipPath2)"/>
      <path fill="none" d="M455 433.5 L455 448.5 L470 448.5 Z" clip-path="url(#clipPath2)" fill-rule="evenodd"/>
      <text x="388.8911" font-size="18px" y="479.7314" clip-path="url(#clipPath2)" font-family="sans-serif" stroke="none" xml:space="preserve">Source</text>
    </g>
    <g fill="silver" text-rendering="geometricPrecision" shape-rendering="geometricPrecision" transform="matrix(1,0,0,1,-355,-283)" stroke="silver">
      <path d="M832 433.5 L917 433.5 L917 448.5 L932 448.5 L932 513.5 L832 513.5 Z" stroke="none" clip-path="url(#clipPath2)"/>
      <path fill="white" d="M917 433.5 L917 448.5 L932 448.5 Z" clip-path="url(#clipPath2)" fill-rule="evenodd" stroke="none"/>
    </g>
    <g text-rendering="geometricPrecision" stroke-miterlimit="1.45" shape-rendering="geometricPrecision" transform="matrix(1,0,0,1,-355,-283)" stroke-linecap="butt">
      <path fill="none" d="M832 433.5 L917 433.5 L917 448.5 L932 448.5 L932 513.5 L832 513.5 Z" clip-path="url(#clipPath2)"/>
      <path fill="none" d="M917 433.5 L917 448.5 L932 448.5 Z" clip-path="url(#clipPath2)" fill-rule="evenodd"/>
      <text x="853.7871" font-size="18px" y="479.7314" clip-path="url(#clipPath2)" font-family="sans-serif" stroke="none" xml:space="preserve">Result</text>
      <path fill="none" d="M654 370.9807 L654 428.9825" clip-path="url(#clipPath2)"/>
      <path d="M654 436.9825 L659 424.9825 L654 427.9825 L649 424.9825 Z" clip-path="url(#clipPath2)" stroke="none"/>
      <path fill="none" d="M654 592.9756 L654 517.9902" clip-path="url(#clipPath2)"/>
      <path d="M654 509.9902 L649 521.9902 L654 518.9902 L659 521.9902 Z" clip-path="url(#clipPath2)" stroke="none"/>
      <path fill="none" d="M470.0164 473.5 L542.0151 473.5" clip-path="url(#clipPath2)"/>
      <path d="M550.0151 473.5 L538.0151 468.5 L541.0151 473.5 L538.0151 478.5 Z" clip-path="url(#clipPath2)" stroke="none"/>
      <path fill="none" d="M758.0083 473.5 L824.0219 473.5" clip-path="url(#clipPath2)"/>
      <path d="M832.0219 473.5 L820.0219 468.5 L823.0219 473.5 L820.0219 478.5 Z" clip-path="url(#clipPath2)" stroke="none"/>
    </g>
  </g>
</svg>
