<?xml version="1.0" encoding="UTF-8"?><svg xmlns="http://www.w3.org/2000/svg" xmlns:xlink="http://www.w3.org/1999/xlink" fill-opacity="1" color-rendering="auto" color-interpolation="auto" text-rendering="auto" stroke="black" stroke-linecap="square" width="861" stroke-miterlimit="10" shape-rendering="auto" stroke-opacity="1" fill="black" stroke-dasharray="none" font-weight="normal" stroke-width="1" height="355" font-family="'Dialog'" font-style="normal" stroke-linejoin="miter" font-size="12px" stroke-dashoffset="0" image-rendering="auto">
  <!--Generated by ySVG 2.5-->
  <defs id="genericDefs"/>
  <g>
    <defs id="defs1">
      <clipPath clipPathUnits="userSpaceOnUse" id="clipPath1">
        <path d="M0 0 L861 0 L861 355 L0 355 L0 0 Z"/>
      </clipPath>
      <clipPath clipPathUnits="userSpaceOnUse" id="clipPath2">
        <path d="M301 208 L1162 208 L1162 563 L301 563 L301 208 Z"/>
      </clipPath>
    </defs>
    <g fill="rgb(153,204,255)" text-rendering="geometricPrecision" shape-rendering="geometricPrecision" transform="matrix(1,0,0,1,-301,-208)" stroke="rgb(153,204,255)">
      <rect x="316" y="223" clip-path="url(#clipPath2)" width="115" rx="4" ry="4" height="117" stroke="none"/>
    </g>
    <g text-rendering="geometricPrecision" stroke-miterlimit="1.45" shape-rendering="geometricPrecision" transform="matrix(1,0,0,1,-301,-208)" stroke-linecap="butt">
      <rect x="316" y="223" clip-path="url(#clipPath2)" fill="none" width="115" rx="4" ry="4" height="117"/>
      <text x="355.2266" font-size="16px" y="277.7266" clip-path="url(#clipPath2)" font-family="sans-serif" stroke="none" font-weight="bold" xml:space="preserve">CDI </text>
      <text x="324.4727" font-size="16px" y="296.3516" clip-path="url(#clipPath2)" font-family="sans-serif" stroke="none" font-weight="bold" xml:space="preserve">Extensions</text>
    </g>
    <g fill="rgb(255,204,153)" text-rendering="geometricPrecision" shape-rendering="geometricPrecision" transform="matrix(1,0,0,1,-301,-208)" stroke="rgb(255,204,153)">
      <rect x="440" y="284" clip-path="url(#clipPath2)" width="589.25" rx="4" ry="4" height="56" stroke="none"/>
    </g>
    <g text-rendering="geometricPrecision" stroke-miterlimit="1.45" shape-rendering="geometricPrecision" transform="matrix(1,0,0,1,-301,-208)" stroke-linecap="butt">
      <rect x="440" y="284" clip-path="url(#clipPath2)" fill="none" width="589.25" rx="4" ry="4" height="56"/>
      <text x="685.3281" font-size="16px" y="317.5391" clip-path="url(#clipPath2)" font-family="sans-serif" stroke="none" font-weight="bold" xml:space="preserve">Servlet 3.1</text>
    </g>
    <g fill="rgb(153,204,255)" text-rendering="geometricPrecision" shape-rendering="geometricPrecision" transform="matrix(1,0,0,1,-301,-208)" stroke="rgb(153,204,255)">
      <rect x="440" y="223" clip-path="url(#clipPath2)" width="73" rx="4" ry="4" height="56" stroke="none"/>
    </g>
    <g text-rendering="geometricPrecision" stroke-miterlimit="1.45" shape-rendering="geometricPrecision" transform="matrix(1,0,0,1,-301,-208)" stroke-linecap="butt">
      <rect x="440" y="223" clip-path="url(#clipPath2)" fill="none" width="73" rx="4" ry="4" height="56"/>
      <text x="444.9414" font-size="16px" y="256.5391" clip-path="url(#clipPath2)" font-family="sans-serif" stroke="none" font-weight="bold" xml:space="preserve">JSP 2.2</text>
    </g>
    <g fill="rgb(153,204,255)" text-rendering="geometricPrecision" shape-rendering="geometricPrecision" transform="matrix(1,0,0,1,-301,-208)" stroke="rgb(153,204,255)">
      <rect x="522" y="223" clip-path="url(#clipPath2)" width="73" rx="4" ry="4" height="56" stroke="none"/>
    </g>
    <g text-rendering="geometricPrecision" stroke-miterlimit="1.45" shape-rendering="geometricPrecision" transform="matrix(1,0,0,1,-301,-208)" stroke-linecap="butt">
      <rect x="522" y="223" clip-path="url(#clipPath2)" fill="none" width="73" rx="4" ry="4" height="56"/>
      <text x="527.3398" font-size="16px" y="256.5391" clip-path="url(#clipPath2)" font-family="sans-serif" stroke="none" font-weight="bold" xml:space="preserve">JSF 2.2</text>
    </g>
    <g fill="rgb(255,204,153)" text-rendering="geometricPrecision" shape-rendering="geometricPrecision" transform="matrix(1,0,0,1,-301,-208)" stroke="rgb(255,204,153)">
      <rect x="604" y="223" clip-path="url(#clipPath2)" width="108.4167" rx="4" ry="4" height="56" stroke="none"/>
    </g>
    <g text-rendering="geometricPrecision" stroke-miterlimit="1.45" shape-rendering="geometricPrecision" transform="matrix(1,0,0,1,-301,-208)" stroke-linecap="butt">
      <rect x="604" y="223" clip-path="url(#clipPath2)" fill="none" width="108.4167" rx="4" ry="4" height="56"/>
      <text x="610.6732" font-size="16px" y="247.2266" clip-path="url(#clipPath2)" font-family="sans-serif" stroke="none" font-weight="bold" xml:space="preserve">JAX-RS 2.0</text>
      <text x="608.0091" font-size="16px" y="265.8516" clip-path="url(#clipPath2)" font-family="sans-serif" stroke="none" font-weight="bold" xml:space="preserve">JAX-WS 2.2</text>
    </g>
    <g fill="rgb(153,204,255)" text-rendering="geometricPrecision" shape-rendering="geometricPrecision" transform="matrix(1,0,0,1,-301,-208)" stroke="rgb(153,204,255)">
      <rect x="721.4167" y="223" clip-path="url(#clipPath2)" width="108.4167" rx="4" ry="4" height="56" stroke="none"/>
    </g>
    <g text-rendering="geometricPrecision" stroke-miterlimit="1.45" shape-rendering="geometricPrecision" transform="matrix(1,0,0,1,-301,-208)" stroke-linecap="butt">
      <rect x="721.4167" y="223" clip-path="url(#clipPath2)" fill="none" width="108.4167" rx="4" ry="4" height="56"/>
      <text x="748.1055" font-size="16px" y="256.5391" clip-path="url(#clipPath2)" font-family="sans-serif" stroke="none" font-weight="bold" xml:space="preserve">EL 3.0</text>
    </g>
    <g fill="rgb(153,204,255)" text-rendering="geometricPrecision" shape-rendering="geometricPrecision" transform="matrix(1,0,0,1,-301,-208)" stroke="rgb(153,204,255)">
      <rect x="1038.25" y="223" clip-path="url(#clipPath2)" width="108.4167" rx="4" ry="4" height="324.75" stroke="none"/>
    </g>
    <g text-rendering="geometricPrecision" stroke-miterlimit="1.45" shape-rendering="geometricPrecision" transform="matrix(1,0,0,1,-301,-208)" stroke-linecap="butt">
      <rect x="1038.25" y="223" clip-path="url(#clipPath2)" fill="none" width="108.4167" rx="4" ry="4" height="324.75"/>
      <text x="1069.8412" font-size="16px" y="381.6016" clip-path="url(#clipPath2)" font-family="sans-serif" stroke="none" font-weight="bold" xml:space="preserve">Bean</text>
      <text x="1046.5013" font-size="16px" y="400.2266" clip-path="url(#clipPath2)" font-family="sans-serif" stroke="none" font-weight="bold" xml:space="preserve">Validation</text>
    </g>
    <g fill="rgb(255,204,153)" text-rendering="geometricPrecision" shape-rendering="geometricPrecision" transform="matrix(1,0,0,1,-301,-208)" stroke="rgb(255,204,153)">
      <rect x="838.8333" y="223" clip-path="url(#clipPath2)" width="108.4167" rx="4" ry="4" height="56" stroke="none"/>
    </g>
    <g text-rendering="geometricPrecision" stroke-miterlimit="1.45" shape-rendering="geometricPrecision" transform="matrix(1,0,0,1,-301,-208)" stroke-linecap="butt">
      <rect x="838.8333" y="223" clip-path="url(#clipPath2)" fill="none" width="108.4167" rx="4" ry="4" height="56"/>
      <text x="842.4948" font-size="16px" y="247.2266" clip-path="url(#clipPath2)" font-family="sans-serif" stroke="none" font-weight="bold" xml:space="preserve">WebSocket</text>
      <text x="878.8698" font-size="16px" y="265.8516" clip-path="url(#clipPath2)" font-family="sans-serif" stroke="none" font-weight="bold" xml:space="preserve">1.0</text>
    </g>
    <g fill="rgb(255,204,153)" text-rendering="geometricPrecision" shape-rendering="geometricPrecision" transform="matrix(1,0,0,1,-301,-208)" stroke="rgb(255,204,153)">
      <rect x="316" y="351.125" clip-path="url(#clipPath2)" width="327.4928" rx="4" ry="4" height="56" stroke="none"/>
    </g>
    <g text-rendering="geometricPrecision" stroke-miterlimit="1.45" shape-rendering="geometricPrecision" transform="matrix(1,0,0,1,-301,-208)" stroke-linecap="butt">
      <rect x="316" y="351.125" clip-path="url(#clipPath2)" fill="none" width="327.4928" rx="4" ry="4" height="56"/>
      <text x="447.3011" font-size="16px" y="384.6641" clip-path="url(#clipPath2)" font-family="sans-serif" stroke="none" font-weight="bold" xml:space="preserve">CDI 1.1</text>
    </g>
    <g fill="rgb(153,204,255)" text-rendering="geometricPrecision" shape-rendering="geometricPrecision" transform="matrix(1,0,0,1,-301,-208)" stroke="rgb(153,204,255)">
      <rect x="652" y="351.125" clip-path="url(#clipPath2)" width="129.25" rx="4" ry="4" height="56" stroke="none"/>
    </g>
    <g text-rendering="geometricPrecision" stroke-miterlimit="1.45" shape-rendering="geometricPrecision" transform="matrix(1,0,0,1,-301,-208)" stroke-linecap="butt">
      <rect x="652" y="351.125" clip-path="url(#clipPath2)" fill="none" width="129.25" rx="4" ry="4" height="56"/>
      <text x="660.8359" font-size="16px" y="375.3516" clip-path="url(#clipPath2)" font-family="sans-serif" stroke="none" font-weight="bold" xml:space="preserve">Interceptors</text>
      <text x="665.0469" font-size="16px" y="393.9766" clip-path="url(#clipPath2)" font-family="sans-serif" stroke="none" font-weight="bold" xml:space="preserve">1.2, JTA 1.2</text>
    </g>
    <g fill="rgb(153,204,255)" text-rendering="geometricPrecision" shape-rendering="geometricPrecision" transform="matrix(1,0,0,1,-301,-208)" stroke="rgb(153,204,255)">
      <rect x="790.25" y="351.125" clip-path="url(#clipPath2)" width="115" rx="4" ry="4" height="56" stroke="none"/>
    </g>
    <g text-rendering="geometricPrecision" stroke-miterlimit="1.45" shape-rendering="geometricPrecision" transform="matrix(1,0,0,1,-301,-208)" stroke-linecap="butt">
      <rect x="790.25" y="351.125" clip-path="url(#clipPath2)" fill="none" width="115" rx="4" ry="4" height="56"/>
      <text x="805.7344" font-size="16px" y="375.3516" clip-path="url(#clipPath2)" font-family="sans-serif" stroke="none" font-weight="bold" xml:space="preserve">Common </text>
      <text x="792.9297" font-size="16px" y="393.9766" clip-path="url(#clipPath2)" font-family="sans-serif" stroke="none" font-weight="bold" xml:space="preserve">Annotations</text>
    </g>
    <g fill="rgb(153,204,255)" text-rendering="geometricPrecision" shape-rendering="geometricPrecision" transform="matrix(1,0,0,1,-301,-208)" stroke="rgb(153,204,255)">
      <rect x="914.25" y="351.125" clip-path="url(#clipPath2)" width="115" rx="4" ry="4" height="56" stroke="none"/>
    </g>
    <g text-rendering="geometricPrecision" stroke-miterlimit="1.45" shape-rendering="geometricPrecision" transform="matrix(1,0,0,1,-301,-208)" stroke-linecap="butt">
      <rect x="914.25" y="351.125" clip-path="url(#clipPath2)" fill="none" width="115" rx="4" ry="4" height="56"/>
      <text x="915.2812" font-size="16px" y="375.3516" clip-path="url(#clipPath2)" font-family="sans-serif" stroke="none" font-weight="bold" xml:space="preserve">Concurrency</text>
      <text x="957.5781" font-size="16px" y="393.9766" clip-path="url(#clipPath2)" font-family="sans-serif" stroke="none" font-weight="bold" xml:space="preserve">1.0</text>
    </g>
    <g fill="rgb(153,204,255)" text-rendering="geometricPrecision" shape-rendering="geometricPrecision" transform="matrix(1,0,0,1,-301,-208)" stroke="rgb(153,204,255)">
      <rect x="316" y="418.25" clip-path="url(#clipPath2)" width="169.1667" rx="4" ry="4" height="56" stroke="none"/>
    </g>
    <g text-rendering="geometricPrecision" stroke-miterlimit="1.45" shape-rendering="geometricPrecision" transform="matrix(1,0,0,1,-301,-208)" stroke-linecap="butt">
      <rect x="316" y="418.25" clip-path="url(#clipPath2)" fill="none" width="169.1667" rx="4" ry="4" height="56"/>
      <text x="329.0872" font-size="16px" y="442.4766" clip-path="url(#clipPath2)" font-family="sans-serif" stroke="none" font-weight="bold" xml:space="preserve">Managed Beans</text>
      <text x="386.4115" font-size="16px" y="461.1016" clip-path="url(#clipPath2)" font-family="sans-serif" stroke="none" font-weight="bold" xml:space="preserve">1.0</text>
    </g>
    <g fill="rgb(153,204,255)" text-rendering="geometricPrecision" shape-rendering="geometricPrecision" transform="matrix(1,0,0,1,-301,-208)" stroke="rgb(153,204,255)">
      <rect x="493.0833" y="418.25" clip-path="url(#clipPath2)" width="536.1667" rx="4" ry="4" height="56" stroke="none"/>
    </g>
    <g text-rendering="geometricPrecision" stroke-miterlimit="1.45" shape-rendering="geometricPrecision" transform="matrix(1,0,0,1,-301,-208)" stroke-linecap="butt">
      <rect x="493.0833" y="418.25" clip-path="url(#clipPath2)" fill="none" width="536.1667" rx="4" ry="4" height="56"/>
      <text x="729.6706" font-size="16px" y="451.7891" clip-path="url(#clipPath2)" font-family="sans-serif" stroke="none" font-weight="bold" xml:space="preserve">EJB 3.2</text>
    </g>
    <g fill="rgb(153,204,255)" text-rendering="geometricPrecision" shape-rendering="geometricPrecision" transform="matrix(1,0,0,1,-301,-208)" stroke="rgb(153,204,255)">
      <rect x="316" y="485.375" clip-path="url(#clipPath2)" width="270.8919" rx="4" ry="4" height="62.375" stroke="none"/>
    </g>
    <g text-rendering="geometricPrecision" stroke-miterlimit="1.45" shape-rendering="geometricPrecision" transform="matrix(1,0,0,1,-301,-208)" stroke-linecap="butt">
      <rect x="316" y="485.375" clip-path="url(#clipPath2)" fill="none" width="270.8919" rx="4" ry="4" height="62.375"/>
      <text x="419.4577" font-size="16px" y="522.1016" clip-path="url(#clipPath2)" font-family="sans-serif" stroke="none" font-weight="bold" xml:space="preserve">JPA 2.1</text>
    </g>
    <g fill="rgb(255,204,153)" text-rendering="geometricPrecision" shape-rendering="geometricPrecision" transform="matrix(1,0,0,1,-301,-208)" stroke="rgb(255,204,153)">
      <rect x="594.8086" y="485.375" clip-path="url(#clipPath2)" width="235.0247" rx="4" ry="4" height="62.375" stroke="none"/>
    </g>
    <g text-rendering="geometricPrecision" stroke-miterlimit="1.45" shape-rendering="geometricPrecision" transform="matrix(1,0,0,1,-301,-208)" stroke-linecap="butt">
      <rect x="594.8086" y="485.375" clip-path="url(#clipPath2)" fill="none" width="235.0247" rx="4" ry="4" height="62.375"/>
      <text x="678.6647" font-size="16px" y="522.1016" clip-path="url(#clipPath2)" font-family="sans-serif" stroke="none" font-weight="bold" xml:space="preserve">JMS 2.0</text>
    </g>
    <g fill="rgb(153,204,255)" text-rendering="geometricPrecision" shape-rendering="geometricPrecision" transform="matrix(1,0,0,1,-301,-208)" stroke="rgb(153,204,255)">
      <rect x="835.1876" y="485.375" clip-path="url(#clipPath2)" width="86.875" rx="4" ry="4" height="62.375" stroke="none"/>
    </g>
    <g text-rendering="geometricPrecision" stroke-miterlimit="1.45" shape-rendering="geometricPrecision" transform="matrix(1,0,0,1,-301,-208)" stroke-linecap="butt">
      <rect x="835.1876" y="485.375" clip-path="url(#clipPath2)" fill="none" width="86.875" rx="4" ry="4" height="62.375"/>
      <text x="846.629" font-size="16px" y="522.1016" clip-path="url(#clipPath2)" font-family="sans-serif" stroke="none" font-weight="bold" xml:space="preserve">JCA 1.7</text>
    </g>
    <g fill="rgb(153,204,255)" text-rendering="geometricPrecision" shape-rendering="geometricPrecision" transform="matrix(1,0,0,1,-301,-208)" stroke="rgb(153,204,255)">
      <rect x="929.9419" y="485.375" clip-path="url(#clipPath2)" width="99.3081" rx="4" ry="4" height="62.375" stroke="none"/>
    </g>
    <g text-rendering="geometricPrecision" stroke-miterlimit="1.45" shape-rendering="geometricPrecision" transform="matrix(1,0,0,1,-301,-208)" stroke-linecap="butt">
      <rect x="929.9419" y="485.375" clip-path="url(#clipPath2)" fill="none" width="99.3081" rx="4" ry="4" height="62.375"/>
      <text x="936.8811" font-size="16px" y="522.1016" clip-path="url(#clipPath2)" font-family="sans-serif" stroke="none" font-weight="bold" xml:space="preserve">Batch 1.0</text>
    </g>
    <g fill="rgb(255,204,153)" text-rendering="geometricPrecision" shape-rendering="geometricPrecision" transform="matrix(1,0,0,1,-301,-208)" stroke="rgb(255,204,153)">
      <rect x="956.25" y="223" clip-path="url(#clipPath2)" width="73" rx="4" ry="4" height="56" stroke="none"/>
    </g>
    <g text-rendering="geometricPrecision" stroke-miterlimit="1.45" shape-rendering="geometricPrecision" transform="matrix(1,0,0,1,-301,-208)" stroke-linecap="butt">
      <rect x="956.25" y="223" clip-path="url(#clipPath2)" fill="none" width="73" rx="4" ry="4" height="56"/>
      <text x="961.332" font-size="16px" y="256.5391" clip-path="url(#clipPath2)" font-family="sans-serif" stroke="none" font-weight="bold" xml:space="preserve">JSON-P</text>
    </g>
  </g>
</svg>
