<?xml version="1.0" encoding="UTF-8"?><svg xmlns="http://www.w3.org/2000/svg" xmlns:xlink="http://www.w3.org/1999/xlink" fill-opacity="1" color-rendering="auto" color-interpolation="auto" text-rendering="auto" stroke="black" stroke-linecap="square" width="760" stroke-miterlimit="10" shape-rendering="auto" stroke-opacity="1" fill="black" stroke-dasharray="none" font-weight="normal" stroke-width="1" height="706" font-family="'Dialog'" font-style="normal" stroke-linejoin="miter" font-size="12px" stroke-dashoffset="0" image-rendering="auto">
  <!--Generated by ySVG 2.5-->
  <defs id="genericDefs"/>
  <g>
    <defs id="defs1">
      <clipPath clipPathUnits="userSpaceOnUse" id="clipPath1">
        <path d="M0 0 L760 0 L760 706 L0 706 L0 0 Z"/>
      </clipPath>
      <clipPath clipPathUnits="userSpaceOnUse" id="clipPath2">
        <path d="M206 129 L966 129 L966 835 L206 835 L206 129 Z"/>
      </clipPath>
    </defs>
    <g text-rendering="geometricPrecision" stroke-miterlimit="1.45" shape-rendering="geometricPrecision" transform="matrix(1,0,0,1,-206,-129)" stroke-linecap="butt">
      <rect x="397" y="144" clip-path="url(#clipPath2)" fill="none" width="408" rx="4" ry="4" height="514"/>
    </g>
    <g font-size="20px" stroke-linecap="butt" transform="matrix(1,0,0,1,-206,-129)" text-rendering="geometricPrecision" font-family="sans-serif" shape-rendering="geometricPrecision" stroke-miterlimit="1.45">
      <text x="412.2471" xml:space="preserve" y="179.5801" clip-path="url(#clipPath2)" stroke="none">JSF view</text>
    </g>
    <g fill="silver" text-rendering="geometricPrecision" shape-rendering="geometricPrecision" transform="matrix(1,0,0,1,-206,-129)" stroke="silver">
      <rect x="411" y="200" clip-path="url(#clipPath2)" width="378" rx="4" ry="4" height="166" stroke="none"/>
    </g>
    <g text-rendering="geometricPrecision" stroke-miterlimit="1.45" shape-rendering="geometricPrecision" transform="matrix(1,0,0,1,-206,-129)" stroke-linecap="butt">
      <rect x="411" y="200" clip-path="url(#clipPath2)" fill="none" width="378" rx="4" ry="4" height="166"/>
      <text x="417" font-size="20px" y="224.5645" clip-path="url(#clipPath2)" font-family="sans-serif" stroke="none" xml:space="preserve">h:form</text>
    </g>
    <g fill="rgb(153,204,255)" text-rendering="geometricPrecision" shape-rendering="geometricPrecision" transform="matrix(1,0,0,1,-206,-129)" stroke="rgb(153,204,255)">
      <rect x="411" y="373" clip-path="url(#clipPath2)" width="378" rx="4" ry="4" height="166" stroke="none"/>
    </g>
    <g text-rendering="geometricPrecision" stroke-miterlimit="1.45" shape-rendering="geometricPrecision" transform="matrix(1,0,0,1,-206,-129)" stroke-linecap="butt">
      <rect x="411" y="373" clip-path="url(#clipPath2)" fill="none" width="378" rx="4" ry="4" height="166"/>
      <text x="417" font-size="20px" y="397.5645" clip-path="url(#clipPath2)" font-family="sans-serif" stroke="none" xml:space="preserve">HTML5 JavaScript component</text>
    </g>
    <g fill="rgb(255,204,0)" text-rendering="geometricPrecision" shape-rendering="geometricPrecision" transform="matrix(1,0,0,1,-206,-129)" stroke="rgb(255,204,0)">
      <rect x="397" y="725.2765" clip-path="url(#clipPath2)" width="408" rx="4" ry="4" height="94" stroke="none"/>
    </g>
    <g text-rendering="geometricPrecision" stroke-miterlimit="1.45" shape-rendering="geometricPrecision" transform="matrix(1,0,0,1,-206,-129)" stroke-linecap="butt">
      <rect x="397" y="725.2765" clip-path="url(#clipPath2)" fill="none" width="408" rx="4" ry="4" height="94"/>
      <text x="568.207" font-size="20px" y="808.5597" clip-path="url(#clipPath2)" font-family="sans-serif" stroke="none" xml:space="preserve">Server</text>
    </g>
    <g fill="rgb(255,204,0)" text-rendering="geometricPrecision" shape-rendering="geometricPrecision" transform="matrix(1,0,0,1,-206,-129)" stroke="rgb(255,204,0)">
      <rect x="410" y="738.2765" clip-path="url(#clipPath2)" width="126" rx="4" ry="4" height="40" stroke="none"/>
    </g>
    <g text-rendering="geometricPrecision" stroke-miterlimit="1.45" shape-rendering="geometricPrecision" transform="matrix(1,0,0,1,-206,-129)" stroke-linecap="butt">
      <rect x="410" y="738.2765" clip-path="url(#clipPath2)" fill="none" width="126" rx="4" ry="4" height="40"/>
      <text x="420.5293" font-size="20px" y="765.2003" clip-path="url(#clipPath2)" font-family="sans-serif" stroke="none" xml:space="preserve">JSF servlet</text>
    </g>
    <g fill="rgb(255,204,0)" text-rendering="geometricPrecision" shape-rendering="geometricPrecision" transform="matrix(1,0,0,1,-206,-129)" stroke="rgb(255,204,0)">
      <rect x="666" y="738.2765" clip-path="url(#clipPath2)" width="126" rx="4" ry="4" height="40" stroke="none"/>
    </g>
    <g text-rendering="geometricPrecision" stroke-miterlimit="1.45" shape-rendering="geometricPrecision" transform="matrix(1,0,0,1,-206,-129)" stroke-linecap="butt">
      <rect x="666" y="738.2765" clip-path="url(#clipPath2)" fill="none" width="126" rx="4" ry="4" height="40"/>
      <text x="672.7842" font-size="20px" y="765.2003" clip-path="url(#clipPath2)" font-family="sans-serif" stroke="none" xml:space="preserve">WebSocket</text>
    </g>
    <g fill="rgb(255,153,0)" text-rendering="geometricPrecision" shape-rendering="geometricPrecision" transform="matrix(1,0,0,1,-206,-129)" stroke="rgb(255,153,0)">
      <rect x="580" y="546" clip-path="url(#clipPath2)" width="209" rx="4" ry="4" height="94" stroke="none"/>
    </g>
    <g text-rendering="geometricPrecision" stroke-miterlimit="1.45" shape-rendering="geometricPrecision" transform="matrix(1,0,0,1,-206,-129)" stroke-linecap="butt">
      <rect x="580" y="546" clip-path="url(#clipPath2)" fill="none" width="209" rx="4" ry="4" height="94"/>
      <text x="592.8838" font-size="20px" y="588.2832" clip-path="url(#clipPath2)" font-family="sans-serif" stroke="none" xml:space="preserve">Custom JavaScript</text>
      <text x="598.1182" font-size="20px" y="611.5645" clip-path="url(#clipPath2)" font-family="sans-serif" stroke="none" xml:space="preserve">Message Handler</text>
      <path fill="none" d="M446.8743 738.2671 L435.373 729.4584 L402.5797 700.4222 L374.6199 671.1677 L351.4937 641.6949 L341.7433 626.8767 L333.2012 612.004 L325.8675 597.0766 L319.7422 582.0947 L314.8253 567.0583 L311.1168 551.9673 L308.6167 536.8218 L307.325 521.6216 L307.2417 506.367 L308.3668 491.0577 L310.7003 475.694 L314.2422 460.2756 L318.9925 444.8027 L324.9512 429.2753 L332.1183 413.6932 L340.4937 398.0567 L360.8699 366.6198 L386.0797 334.9648 L405.5014 314.3601" clip-path="url(#clipPath2)"/>
      <path d="M410.9887 308.5386 L399.1193 313.8413 L404.8155 315.0878 L406.3962 320.7004 Z" clip-path="url(#clipPath2)" stroke="none"/>
      <text x="263.907" font-size="20px" y="516.9048" clip-path="url(#clipPath2)" font-family="sans-serif" stroke="none" xml:space="preserve">4. apply </text>
      <text x="223.2772" font-size="20px" y="540.1861" clip-path="url(#clipPath2)" font-family="sans-serif" stroke="none" xml:space="preserve">partial rendering</text>
      <path fill="none" d="M730.066 738.299 L730.1996 735.7963 L729.4672 713.8362 L726.8027 692.3964 L722.2062 671.4767 L715.6777 651.0772 L714.1011 647.3727" clip-path="url(#clipPath2)"/>
      <path d="M710.9683 640.0116 L711.0668 653.0112 L714.4927 648.2928 L720.2681 649.0952 Z" clip-path="url(#clipPath2)" stroke="none"/>
      <text x="692.0331" font-size="18px" y="701.1993" clip-path="url(#clipPath2)" font-family="sans-serif" stroke="none" xml:space="preserve">1. onMessage</text>
      <path fill="none" d="M788.9878 595.7155 L792.3921 592.1847 L802.1236 580.5364 L810.1945 569.0551 L816.6048 557.741 L821.3544 546.5938 L824.4435 535.6136 L825.8719 524.8006 L825.6397 514.1546 L823.7469 503.6756 L820.1935 493.3637 L814.9794 483.2188 L808.1048 473.2409 L799.5695 463.4301 L794.8207 458.9385 L794.7426 458.876" clip-path="url(#clipPath2)"/>
      <path d="M788.9072 453.4035 L794.2399 465.2594 L795.4719 459.5601 L801.0805 457.9652 Z" clip-path="url(#clipPath2)" stroke="none"/>
      <text x="840.4435" font-size="18px" y="515.2176" clip-path="url(#clipPath2)" font-family="sans-serif" stroke="none" xml:space="preserve">2. Update </text>
      <text x="826.1174" font-size="18px" y="536.1707" clip-path="url(#clipPath2)" font-family="sans-serif" stroke="none" xml:space="preserve">HTML5 / SVG </text>
      <text x="831.7424" font-size="18px" y="557.1238" clip-path="url(#clipPath2)" font-family="sans-serif" stroke="none" xml:space="preserve">components</text>
      <path fill="none" d="M651.5837 640.0111 L643.8018 649.9015 L620.4086 674.4567 L594.9858 696.4147 L567.5336 715.7758 L538.0518 732.5397 L532.5777 735.0008" clip-path="url(#clipPath2)"/>
      <path d="M525.2812 738.2812 L538.2762 737.9209 L533.4897 734.5908 L534.1757 728.8003 Z" clip-path="url(#clipPath2)" stroke="none"/>
      <text x="528.4789" font-size="18px" y="692.1696" clip-path="url(#clipPath2)" font-family="sans-serif" stroke="none" xml:space="preserve">3. Request for </text>
      <text x="519.3427" font-size="18px" y="713.1227" clip-path="url(#clipPath2)" font-family="sans-serif" stroke="none" xml:space="preserve">partial rendering</text>
    </g>
  </g>
</svg>
