<?xml version="1.0" encoding="UTF-8"?><svg xmlns="http://www.w3.org/2000/svg" xmlns:xlink="http://www.w3.org/1999/xlink" fill-opacity="1" color-rendering="auto" color-interpolation="auto" text-rendering="auto" stroke="black" stroke-linecap="square" width="662" stroke-miterlimit="10" shape-rendering="auto" stroke-opacity="1" fill="black" stroke-dasharray="none" font-weight="normal" stroke-width="1" height="311" font-family="'Dialog'" font-style="normal" stroke-linejoin="miter" font-size="12px" stroke-dashoffset="0" image-rendering="auto">
  <!--Generated by ySVG 2.5-->
  <defs id="genericDefs"/>
  <g>
    <defs id="defs1">
      <clipPath clipPathUnits="userSpaceOnUse" id="clipPath1">
        <path d="M0 0 L662 0 L662 311 L0 311 L0 0 Z"/>
      </clipPath>
      <clipPath clipPathUnits="userSpaceOnUse" id="clipPath2">
        <path d="M454 298 L1116 298 L1116 609 L454 609 L454 298 Z"/>
      </clipPath>
    </defs>
    <g fill="rgb(255,204,0)" text-rendering="geometricPrecision" shape-rendering="geometricPrecision" transform="matrix(1,0,0,1,-454,-298)" stroke="rgb(255,204,0)">
      <rect x="469" y="313" clip-path="url(#clipPath2)" width="132" rx="4" ry="4" height="70" stroke="none"/>
    </g>
    <g text-rendering="geometricPrecision" stroke-miterlimit="1.45" shape-rendering="geometricPrecision" transform="matrix(1,0,0,1,-454,-298)" stroke-linecap="butt">
      <rect x="469" y="313" clip-path="url(#clipPath2)" fill="none" width="132" rx="4" ry="4" height="70"/>
      <text x="520.7939" xml:space="preserve" y="352.1543" clip-path="url(#clipPath2)" font-family="sans-serif" stroke="none">WAR</text>
    </g>
    <g fill="rgb(255,204,0)" text-rendering="geometricPrecision" shape-rendering="geometricPrecision" transform="matrix(1,0,0,1,-454,-298)" stroke="rgb(255,204,0)">
      <rect x="645" y="313" clip-path="url(#clipPath2)" width="132" rx="4" ry="4" height="70" stroke="none"/>
    </g>
    <g text-rendering="geometricPrecision" stroke-miterlimit="1.45" shape-rendering="geometricPrecision" transform="matrix(1,0,0,1,-454,-298)" stroke-linecap="butt">
      <rect x="645" y="313" clip-path="url(#clipPath2)" fill="none" width="132" rx="4" ry="4" height="70"/>
      <text x="685.2861" xml:space="preserve" y="352.1543" clip-path="url(#clipPath2)" font-family="sans-serif" stroke="none">WEB-INF</text>
    </g>
    <g fill="rgb(255,204,0)" text-rendering="geometricPrecision" shape-rendering="geometricPrecision" transform="matrix(1,0,0,1,-454,-298)" stroke="rgb(255,204,0)">
      <rect x="807" y="313" clip-path="url(#clipPath2)" width="132" rx="4" ry="4" height="70" stroke="none"/>
    </g>
    <g text-rendering="geometricPrecision" stroke-miterlimit="1.45" shape-rendering="geometricPrecision" transform="matrix(1,0,0,1,-454,-298)" stroke-linecap="butt">
      <rect x="807" y="313" clip-path="url(#clipPath2)" fill="none" width="132" rx="4" ry="4" height="70"/>
      <text x="851.2881" xml:space="preserve" y="352.1543" clip-path="url(#clipPath2)" font-family="sans-serif" stroke="none">classes</text>
    </g>
    <g fill="silver" text-rendering="geometricPrecision" shape-rendering="geometricPrecision" transform="matrix(1,0,0,1,-454,-298)" stroke="silver">
      <rect x="969" y="313" clip-path="url(#clipPath2)" width="132" rx="4" ry="4" height="70" stroke="none"/>
    </g>
    <g text-rendering="geometricPrecision" stroke-miterlimit="1.45" shape-rendering="geometricPrecision" transform="matrix(1,0,0,1,-454,-298)" stroke-linecap="butt">
      <rect x="969" y="313" clip-path="url(#clipPath2)" fill="none" width="132" rx="4" ry="4" height="70"/>
      <text x="1015.1982" xml:space="preserve" y="345.1699" clip-path="url(#clipPath2)" font-family="sans-serif" stroke="none">*.class</text>
      <text x="1022.7363" xml:space="preserve" y="359.1387" clip-path="url(#clipPath2)" font-family="sans-serif" stroke="none">files</text>
    </g>
    <g fill="silver" text-rendering="geometricPrecision" shape-rendering="geometricPrecision" transform="matrix(1,0,0,1,-454,-298)" stroke="silver">
      <rect x="807" y="424" clip-path="url(#clipPath2)" width="132" rx="4" ry="4" height="70" stroke="none"/>
    </g>
    <g text-rendering="geometricPrecision" stroke-miterlimit="1.45" shape-rendering="geometricPrecision" transform="matrix(1,0,0,1,-454,-298)" stroke-linecap="butt">
      <rect x="807" y="424" clip-path="url(#clipPath2)" fill="none" width="132" rx="4" ry="4" height="70"/>
      <text x="847.623" xml:space="preserve" y="463.1543" clip-path="url(#clipPath2)" font-family="sans-serif" stroke="none">web.xml</text>
    </g>
    <g fill="silver" text-rendering="geometricPrecision" shape-rendering="geometricPrecision" transform="matrix(1,0,0,1,-454,-298)" stroke="silver">
      <rect x="807" y="524" clip-path="url(#clipPath2)" width="132" rx="4" ry="4" height="70" stroke="none"/>
    </g>
    <g text-rendering="geometricPrecision" stroke-miterlimit="1.45" shape-rendering="geometricPrecision" transform="matrix(1,0,0,1,-454,-298)" stroke-linecap="butt">
      <rect x="807" y="524" clip-path="url(#clipPath2)" fill="none" width="132" rx="4" ry="4" height="70"/>
      <text x="840.8877" xml:space="preserve" y="563.1543" clip-path="url(#clipPath2)" font-family="sans-serif" stroke="none">ejb-jar.xml</text>
      <path fill="none" d="M600.957 348 L636.9904 348" clip-path="url(#clipPath2)"/>
      <path d="M644.9904 348 L632.9904 343 L635.9904 348 L632.9904 353 Z" clip-path="url(#clipPath2)" stroke="none"/>
      <path fill="none" d="M777.0103 348 L798.9602 348" clip-path="url(#clipPath2)"/>
      <path d="M806.9602 348 L794.9602 343 L797.9602 348 L794.9602 353 Z" clip-path="url(#clipPath2)" stroke="none"/>
      <path fill="none" d="M939.0103 348 L960.9602 348" clip-path="url(#clipPath2)"/>
      <path d="M968.9602 348 L956.9602 343 L959.9602 348 L956.9602 353 Z" clip-path="url(#clipPath2)" stroke="none"/>
      <path fill="none" d="M711 382.9856 L711 459 L798.9897 459" clip-path="url(#clipPath2)"/>
      <path d="M806.9897 459 L794.9897 454 L797.9897 459 L794.9897 464 Z" clip-path="url(#clipPath2)" stroke="none"/>
      <path fill="none" d="M711 383.0035 L711 559 L798.9897 559" clip-path="url(#clipPath2)"/>
      <path d="M806.9897 559 L794.9897 554 L797.9897 559 L794.9897 564 Z" clip-path="url(#clipPath2)" stroke="none"/>
    </g>
  </g>
</svg>
