<?xml version="1.0" encoding="UTF-8"?><svg xmlns="http://www.w3.org/2000/svg" xmlns:xlink="http://www.w3.org/1999/xlink" fill-opacity="1" color-rendering="auto" color-interpolation="auto" text-rendering="auto" stroke="black" stroke-linecap="square" width="532" stroke-miterlimit="10" shape-rendering="auto" stroke-opacity="1" fill="black" stroke-dasharray="none" font-weight="normal" stroke-width="1" height="465" font-family="'Dialog'" font-style="normal" stroke-linejoin="miter" font-size="12px" stroke-dashoffset="0" image-rendering="auto">
  <!--Generated by ySVG 2.5-->
  <defs id="genericDefs"/>
  <g>
    <defs id="defs1">
      <clipPath clipPathUnits="userSpaceOnUse" id="clipPath1">
        <path d="M0 0 L532 0 L532 465 L0 465 L0 0 Z"/>
      </clipPath>
      <clipPath clipPathUnits="userSpaceOnUse" id="clipPath2">
        <path d="M226 192 L758 192 L758 657 L226 657 L226 192 Z"/>
      </clipPath>
    </defs>
    <g fill="rgb(255,204,0)" text-rendering="geometricPrecision" shape-rendering="geometricPrecision" transform="matrix(1,0,0,1,-226,-192)" stroke="rgb(255,204,0)">
      <rect x="241" y="207" clip-path="url(#clipPath2)" width="190" rx="4" ry="4" height="166" stroke="none"/>
    </g>
    <g text-rendering="geometricPrecision" stroke-miterlimit="1.45" shape-rendering="geometricPrecision" transform="matrix(1,0,0,1,-226,-192)" stroke-linecap="butt">
      <rect x="241" y="207" clip-path="url(#clipPath2)" fill="none" width="190" rx="4" ry="4" height="166"/>
      <text x="252.3398" font-size="18px" y="239.7236" clip-path="url(#clipPath2)" font-family="sans-serif" stroke="none" xml:space="preserve">Web Container</text>
    </g>
    <g fill="white" text-rendering="geometricPrecision" shape-rendering="geometricPrecision" transform="matrix(1,0,0,1,-226,-192)" stroke="white">
      <rect x="278.5" y="257" clip-path="url(#clipPath2)" width="115" rx="4" ry="4" height="88" stroke="none"/>
    </g>
    <g text-rendering="geometricPrecision" stroke-miterlimit="1.45" shape-rendering="geometricPrecision" transform="matrix(1,0,0,1,-226,-192)" stroke-linecap="butt">
      <rect x="278.5" y="257" clip-path="url(#clipPath2)" fill="none" width="115" rx="4" ry="4" height="88"/>
      <text x="294.2871" xml:space="preserve" y="291.1855" clip-path="url(#clipPath2)" font-family="sans-serif" stroke="none">&lt;&lt;artifact&gt;&gt;</text>
      <text x="324.9492" xml:space="preserve" y="305.1543" clip-path="url(#clipPath2)" font-family="sans-serif" stroke="none">war</text>
      <text x="303.6885" xml:space="preserve" y="319.123" clip-path="url(#clipPath2)" font-family="sans-serif" stroke="none">+ web.xml</text>
    </g>
    <g fill="rgb(255,204,0)" text-rendering="geometricPrecision" shape-rendering="geometricPrecision" transform="matrix(1,0,0,1,-226,-192)" stroke="rgb(255,204,0)">
      <rect x="241" y="438" clip-path="url(#clipPath2)" width="190" rx="4" ry="4" height="204" stroke="none"/>
    </g>
    <g text-rendering="geometricPrecision" stroke-miterlimit="1.45" shape-rendering="geometricPrecision" transform="matrix(1,0,0,1,-226,-192)" stroke-linecap="butt">
      <rect x="241" y="438" clip-path="url(#clipPath2)" fill="none" width="190" rx="4" ry="4" height="204"/>
      <text x="252.3398" font-size="18px" y="473.932" clip-path="url(#clipPath2)" font-family="sans-serif" stroke="none" xml:space="preserve">Application Client </text>
      <text x="290.4229" font-size="18px" y="494.8852" clip-path="url(#clipPath2)" font-family="sans-serif" stroke="none" xml:space="preserve">Container</text>
    </g>
    <g fill="white" text-rendering="geometricPrecision" shape-rendering="geometricPrecision" transform="matrix(1,0,0,1,-226,-192)" stroke="white">
      <rect x="249.5" y="520" clip-path="url(#clipPath2)" width="170" rx="4" ry="4" height="88" stroke="none"/>
    </g>
    <g text-rendering="geometricPrecision" stroke-miterlimit="1.45" shape-rendering="geometricPrecision" transform="matrix(1,0,0,1,-226,-192)" stroke-linecap="butt">
      <rect x="249.5" y="520" clip-path="url(#clipPath2)" fill="none" width="170" rx="4" ry="4" height="88"/>
      <text x="292.7871" xml:space="preserve" y="554.1855" clip-path="url(#clipPath2)" font-family="sans-serif" stroke="none">&lt;&lt;artifact&gt;&gt;</text>
      <text x="326.6895" xml:space="preserve" y="568.1543" clip-path="url(#clipPath2)" font-family="sans-serif" stroke="none">jar</text>
      <text x="262.8545" xml:space="preserve" y="582.123" clip-path="url(#clipPath2)" font-family="sans-serif" stroke="none">+ application-client.xml</text>
    </g>
    <g fill="rgb(255,204,0)" text-rendering="geometricPrecision" shape-rendering="geometricPrecision" transform="matrix(1,0,0,1,-226,-192)" stroke="rgb(255,204,0)">
      <rect x="520" y="207" clip-path="url(#clipPath2)" width="223" rx="4" ry="4" height="435" stroke="none"/>
    </g>
    <g text-rendering="geometricPrecision" stroke-miterlimit="1.45" shape-rendering="geometricPrecision" transform="matrix(1,0,0,1,-226,-192)" stroke-linecap="butt">
      <rect x="520" y="207" clip-path="url(#clipPath2)" fill="none" width="223" rx="4" ry="4" height="435"/>
      <text x="534.6436" font-size="18px" y="235.2314" clip-path="url(#clipPath2)" font-family="sans-serif" stroke="none" xml:space="preserve">EJB Container</text>
    </g>
    <g fill="white" text-rendering="geometricPrecision" shape-rendering="geometricPrecision" transform="matrix(1,0,0,1,-226,-192)" stroke="white">
      <rect x="574" y="536" clip-path="url(#clipPath2)" width="115" rx="4" ry="4" height="88" stroke="none"/>
    </g>
    <g text-rendering="geometricPrecision" stroke-miterlimit="1.45" shape-rendering="geometricPrecision" transform="matrix(1,0,0,1,-226,-192)" stroke-linecap="butt">
      <rect x="574" y="536" clip-path="url(#clipPath2)" fill="none" width="115" rx="4" ry="4" height="88"/>
      <text x="589.7871" xml:space="preserve" y="570.1855" clip-path="url(#clipPath2)" font-family="sans-serif" stroke="none">&lt;&lt;artifact&gt;&gt;</text>
      <text x="623.6895" xml:space="preserve" y="584.1543" clip-path="url(#clipPath2)" font-family="sans-serif" stroke="none">jar</text>
      <text x="592.4531" xml:space="preserve" y="598.123" clip-path="url(#clipPath2)" font-family="sans-serif" stroke="none">+ ejb-jar.xml</text>
    </g>
    <g fill="white" text-rendering="geometricPrecision" shape-rendering="geometricPrecision" transform="matrix(1,0,0,1,-226,-192)" stroke="white">
      <rect x="547" y="251" clip-path="url(#clipPath2)" width="170" rx="4" ry="4" height="260" stroke="none"/>
    </g>
    <g text-rendering="geometricPrecision" stroke-miterlimit="1.45" shape-rendering="geometricPrecision" transform="matrix(1,0,0,1,-226,-192)" stroke-linecap="butt">
      <rect x="547" y="251" clip-path="url(#clipPath2)" fill="none" width="170" rx="4" ry="4" height="260"/>
      <text x="590.2871" xml:space="preserve" y="268.1387" clip-path="url(#clipPath2)" font-family="sans-serif" stroke="none">&lt;&lt;artifact&gt;&gt;</text>
      <text x="622.165" xml:space="preserve" y="282.1074" clip-path="url(#clipPath2)" font-family="sans-serif" stroke="none">ear</text>
      <text x="578.999" xml:space="preserve" y="296.0762" clip-path="url(#clipPath2)" font-family="sans-serif" stroke="none">+ application.xml</text>
    </g>
    <g fill="silver" text-rendering="geometricPrecision" shape-rendering="geometricPrecision" transform="matrix(1,0,0,1,-226,-192)" stroke="silver">
      <rect x="574" y="445" clip-path="url(#clipPath2)" width="115" rx="4" ry="4" height="55" stroke="none"/>
    </g>
    <g text-rendering="geometricPrecision" stroke-miterlimit="1.45" shape-rendering="geometricPrecision" transform="matrix(1,0,0,1,-226,-192)" stroke-linecap="butt">
      <rect x="574" y="445" clip-path="url(#clipPath2)" fill="none" width="115" rx="4" ry="4" height="55"/>
      <text x="589.7871" xml:space="preserve" y="462.6855" clip-path="url(#clipPath2)" font-family="sans-serif" stroke="none">&lt;&lt;artifact&gt;&gt;</text>
      <text x="623.6895" xml:space="preserve" y="476.6543" clip-path="url(#clipPath2)" font-family="sans-serif" stroke="none">jar</text>
      <text x="592.4531" xml:space="preserve" y="490.623" clip-path="url(#clipPath2)" font-family="sans-serif" stroke="none">+ ejb-jar.xml</text>
    </g>
    <g fill="silver" text-rendering="geometricPrecision" shape-rendering="geometricPrecision" transform="matrix(1,0,0,1,-226,-192)" stroke="silver">
      <rect x="574.5" y="382" clip-path="url(#clipPath2)" width="115" rx="4" ry="4" height="55" stroke="none"/>
    </g>
    <g text-rendering="geometricPrecision" stroke-miterlimit="1.45" shape-rendering="geometricPrecision" transform="matrix(1,0,0,1,-226,-192)" stroke-linecap="butt">
      <rect x="574.5" y="382" clip-path="url(#clipPath2)" fill="none" width="115" rx="4" ry="4" height="55"/>
      <text x="590.2871" xml:space="preserve" y="399.6855" clip-path="url(#clipPath2)" font-family="sans-serif" stroke="none">&lt;&lt;artifact&gt;&gt;</text>
      <text x="620.9492" xml:space="preserve" y="413.6543" clip-path="url(#clipPath2)" font-family="sans-serif" stroke="none">war</text>
      <text x="599.6885" xml:space="preserve" y="427.623" clip-path="url(#clipPath2)" font-family="sans-serif" stroke="none">+ web.xml</text>
    </g>
    <g fill="silver" text-rendering="geometricPrecision" shape-rendering="geometricPrecision" transform="matrix(1,0,0,1,-226,-192)" stroke="silver">
      <rect x="574.5" y="319" clip-path="url(#clipPath2)" width="115" rx="4" ry="4" height="55" stroke="none"/>
    </g>
    <g text-rendering="geometricPrecision" stroke-miterlimit="1.45" shape-rendering="geometricPrecision" transform="matrix(1,0,0,1,-226,-192)" stroke-linecap="butt">
      <rect x="574.5" y="319" clip-path="url(#clipPath2)" fill="none" width="115" rx="4" ry="4" height="55"/>
      <text x="590.2871" xml:space="preserve" y="343.6699" clip-path="url(#clipPath2)" font-family="sans-serif" stroke="none">&lt;&lt;artifact&gt;&gt;</text>
      <text x="624.1895" xml:space="preserve" y="357.6387" clip-path="url(#clipPath2)" font-family="sans-serif" stroke="none">jar</text>
      <path fill="none" d="M336 437.9797 L336 380.9857" clip-path="url(#clipPath2)"/>
      <path d="M336 372.9857 L331 384.9857 L336 381.9857 L341 384.9857 Z" clip-path="url(#clipPath2)" stroke="none"/>
      <path fill="none" d="M431.0317 540 L511.9798 540" clip-path="url(#clipPath2)"/>
      <path d="M519.9797 540 L507.9797 535 L510.9797 540 L507.9797 545 Z" clip-path="url(#clipPath2)" stroke="none"/>
      <path fill="none" d="M430.9792 290 L511.967 290" clip-path="url(#clipPath2)"/>
      <path d="M519.967 290 L507.967 285 L510.967 290 L507.967 295 Z" clip-path="url(#clipPath2)" stroke="none"/>
    </g>
  </g>
</svg>
